<svg xmlns="http://www.w3.org/2000/svg"  viewBox="0 0 64 64" width="100px" height="100px"><radialGradient id="5VbLK4k1umJxiYwxUZgTYa" cx="32" cy="32.5" r="31.259" gradientTransform="matrix(1 0 0 -1 0 66)" gradientUnits="userSpaceOnUse"><stop offset="0" stop-color="#9ceeff"/><stop offset=".642" stop-color="#c5f5ff"/><stop offset="1" stop-color="#dcf9ff"/></radialGradient><path fill="url(#5VbLK4k1umJxiYwxUZgTYa)" d="M59.307,42H45v-8h14.302c1.895,0,3.594-1.419,3.693-3.312C63.101,28.67,61.495,27,59.5,27H45	v-5h14.828c2.089,0,3.955-1.527,4.153-3.607C64.209,16.008,62.339,14,60,14H45v-4h9.302c1.895,0,3.594-1.419,3.693-3.312	C58.101,4.67,56.495,3,54.5,3H9.698C7.803,3,6.104,4.419,6.005,6.312C5.899,8.33,7.505,10,9.5,10H19v4h-3H9H4.172	c-2.089,0-3.955,1.527-4.153,3.607C-0.209,19.992,1.661,22,4,22h5h7h3v5H4.698c-1.895,0-3.594,1.419-3.693,3.312	C0.899,32.33,2.505,34,4.5,34H19v6H4.693c-2.35,0-4.449,1.718-4.672,4.058C-0.235,46.742,1.869,49,4.5,49h10	c2.485,0,4.5,2.015,4.5,4.5v1c0,1.933-1.567,3.5-3.5,3.5h-3.389c-1.451,0-2.781,0.981-3.054,2.406C8.689,62.323,10.149,64,12,64	h39.889c1.451,0,2.781-0.981,3.054-2.406C55.311,59.677,53.851,58,52,58h-3.5c-1.933,0-3.5-1.567-3.5-3.5l0,0	c0-1.933,1.567-3.5,3.5-3.5h11c2.631,0,4.735-2.258,4.479-4.942C63.756,43.718,61.657,42,59.307,42z"/><linearGradient id="5VbLK4k1umJxiYwxUZgTYb" x1="32" x2="32" y1="-1.873" y2="71.552" gradientTransform="matrix(1 0 0 -1 0 66)" gradientUnits="userSpaceOnUse"><stop offset="0" stop-color="#005ce2"/><stop offset=".278" stop-color="#0080e8"/><stop offset=".569" stop-color="#009ced"/><stop offset=".82" stop-color="#00b0f1"/><stop offset="1" stop-color="#00b5f2"/></linearGradient><path fill="url(#5VbLK4k1umJxiYwxUZgTYb)" d="M18,8h28c5.523,0,10,4.477,10,10v28c0,5.523-4.477,10-10,10H18c-5.523,0-10-4.477-10-10V18	C8,12.477,12.477,8,18,8z"/><linearGradient id="5VbLK4k1umJxiYwxUZgTYc" x1="46.998" x2="46.998" y1="5.11" y2="63.914" gradientTransform="matrix(1 0 0 -1 0 66)" gradientUnits="userSpaceOnUse"><stop offset="0" stop-color="#005ce2"/><stop offset=".278" stop-color="#0080e8"/><stop offset=".569" stop-color="#009ced"/><stop offset=".82" stop-color="#00b0f1"/><stop offset="1" stop-color="#00b5f2"/></linearGradient><path fill="url(#5VbLK4k1umJxiYwxUZgTYc)" d="M56,44v2c0,5.52-4.48,10-10,10h-5.5c-1.47,0-2.64-1.26-2.49-2.76	c0.13-1.3,1.32-2.24,2.63-2.24h6.86c0.83,0,1.5-0.67,1.5-1.5S48.33,48,47.5,48h-3v-4H56z"/><linearGradient id="5VbLK4k1umJxiYwxUZgTYd" x1="15.999" x2="15.999" y1="-5.535" y2="58.746" gradientTransform="matrix(1 0 0 -1 0 66)" gradientUnits="userSpaceOnUse"><stop offset="0" stop-color="#005ce2"/><stop offset=".278" stop-color="#0080e8"/><stop offset=".569" stop-color="#009ced"/><stop offset=".82" stop-color="#00b0f1"/><stop offset="1" stop-color="#00b5f2"/></linearGradient><path fill="url(#5VbLK4k1umJxiYwxUZgTYd)" d="M21,14h-5c-0.55,0-1.05,0.22-1.41,0.59C14.22,14.95,14,15.45,14,16c0,1.1,0.9,2,2,2h1	c1.21,0,2.18,1.08,1.97,2.34C18.81,21.32,17.89,22,16.89,22H8v-4c0-5.52,4.48-10,10-10h2.89c1.45,0,2.78,0.98,3.05,2.41	C24.31,12.32,22.85,14,21,14z"/><path fill="#fff" d="M17.35,44.23c-0.7,1.18-0.31,2.72,0.88,3.42C18.62,47.89,19.06,48,19.5,48	c0.85,0,1.68-0.44,2.15-1.23L23.88,43h-5.8L17.35,44.23z"/><path fill="#fff" d="M28.62,35l1.78-3l1.6-2.7l2.9-4.89l2.75-4.64c0.7-1.18,0.31-2.72-0.88-3.42	c-1.18-0.7-2.72-0.31-3.42,0.88L32,19.51l-1.35-2.28c-0.12-0.21-0.28-0.4-0.45-0.57c-0.79-0.72-2-0.88-2.97-0.31	c-1.19,0.7-1.58,2.24-0.88,3.42l1,1.69l1.75,2.95L24.6,32l-1.78,3H17.5c-1.38,0-2.5,1.12-2.5,2.5s1.12,2.5,2.5,2.5h2.36h5.8h9.19	l-2.97-5H28.62z"/><path fill="#fff" d="M46.5,35h-5.32l-4.53-7.65l-2.91,4.9L35.37,35l2.97,5l4.01,6.77c0.47,0.79,1.3,1.23,2.15,1.23	c0.44,0,0.88-0.11,1.27-0.35c1.19-0.7,1.58-2.24,0.88-3.42L44.14,40h2.36c0.35,0,0.69-0.07,1-0.21c0.88-0.38,1.5-1.26,1.5-2.29	C49,36.12,47.88,35,46.5,35z"/></svg>