<svg xmlns="http://www.w3.org/2000/svg"  viewBox="0 0 100 100" width="100px" height="100px"><path fill="#ee3e54" d="M13 27A2 2 0 1 0 13 31A2 2 0 1 0 13 27Z"/><path fill="#f1bc19" d="M77 12A1 1 0 1 0 77 14A1 1 0 1 0 77 12Z"/><path fill="#fce0a2" d="M50 13A37 37 0 1 0 50 87A37 37 0 1 0 50 13Z"/><path fill="#f1bc19" d="M83 11A4 4 0 1 0 83 19A4 4 0 1 0 83 11Z"/><path fill="#ee3e54" d="M87 22A2 2 0 1 0 87 26A2 2 0 1 0 87 22Z"/><path fill="#fbcd59" d="M81 74A2 2 0 1 0 81 78 2 2 0 1 0 81 74zM15 59A4 4 0 1 0 15 67 4 4 0 1 0 15 59z"/><path fill="#ee3e54" d="M25 85A2 2 0 1 0 25 89A2 2 0 1 0 25 85Z"/><path fill="#fff" d="M18.5 51A2.5 2.5 0 1 0 18.5 56A2.5 2.5 0 1 0 18.5 51Z"/><path fill="#f1bc19" d="M21 66A1 1 0 1 0 21 68A1 1 0 1 0 21 66Z"/><path fill="#fff" d="M80 33A1 1 0 1 0 80 35A1 1 0 1 0 80 33Z"/><g><path fill="#28b3ea" d="M35.345,74.261c-1.271,0-2.645-1.012-2.645-2.646V28.402c0-1.634,1.373-2.646,2.645-2.646 c0.446,0,0.877,0.113,1.28,0.338L75.487,47.7c0.85,0.474,1.357,1.337,1.357,2.31s-0.508,1.835-1.357,2.307L36.625,73.924 C36.222,74.147,35.791,74.261,35.345,74.261L35.345,74.261z"/><path fill="#52e895" d="M33.789 26.126L36.09 25.953 65.06 41.944 57.221 49.723z"/><path fill="#f9e65c" d="M76.563 48.426L65.06 41.944 57.221 49.723 65.145 57.761 76.137 51.884z"/><path fill="#f15b6c" d="M33.448 73.493L57.221 49.723 65.145 57.761 35.493 74.27z"/><path fill="#472b29" d="M35.345,26.457c0.326,0,0.642,0.084,0.939,0.25l38.862,21.606c0.625,0.347,0.998,0.981,0.998,1.696 c0,0.715-0.373,1.35-0.998,1.697L36.284,73.312c-0.298,0.166-0.614,0.25-0.939,0.25c-0.935,0-1.945-0.744-1.945-1.946V28.402 C33.4,27.201,34.41,26.457,35.345,26.457 M35.345,25.057c-1.747,0-3.345,1.399-3.345,3.346v43.213 c0,1.946,1.598,3.346,3.345,3.346c0.54,0,1.094-0.134,1.619-0.426l38.862-21.606c2.29-1.273,2.29-4.567,0-5.84L36.964,25.482 C36.439,25.19,35.885,25.057,35.345,25.057L35.345,25.057z"/><path fill="#472b29" d="M65.422 58.228c-.064 0-.129-.024-.178-.074L48.562 41.367c-.097-.098-.097-.256.002-.354.097-.097.257-.097.354.002L65.6 57.802c.097.098.097.256-.002.354C65.55 58.203 65.485 58.228 65.422 58.228zM46.749 39.44c-.064 0-.129-.024-.178-.074l-3.465-3.487c-.097-.098-.097-.256.002-.354.097-.097.257-.097.354.002l3.465 3.487c.097.098.097.256-.002.354C46.877 39.416 46.813 39.44 46.749 39.44zM41.905 34.565c-.064 0-.129-.024-.178-.074l-7.797-7.844c-.097-.098-.097-.256.002-.354.096-.097.256-.097.354.002l7.797 7.844c.097.098.097.256-.002.354C42.033 34.541 41.969 34.565 41.905 34.565zM33.789 73.268c-.064 0-.128-.024-.177-.073-.098-.099-.098-.257 0-.354l8.643-8.607c.098-.098.256-.098.354 0 .098.099.098.257 0 .354l-8.643 8.607C33.917 73.243 33.853 73.268 33.789 73.268z"/><path fill="#472b29" d="M44.496,62.604c-0.064,0-0.128-0.024-0.177-0.073c-0.098-0.099-0.098-0.257,0-0.354l20.798-20.714 c0.099-0.098,0.257-0.098,0.354,0c0.098,0.099,0.098,0.257,0,0.354L44.673,62.531C44.624,62.58,44.56,62.604,44.496,62.604z"/></g></svg>