<svg xmlns="http://www.w3.org/2000/svg"  viewBox="0 0 100 100" width="50px" height="50px"><path fill="#78a1d1" d="M89,27v46c0,2.209-1.791,4-4,4H15c-2.209,0-4-1.791-4-4V27c0-2.209,1.791-4,4-4h70 C87.209,23,89,24.791,89,27z"/><polygon fill="#fff" points="39.277,60.499 44.527,60.499 47.702,39.503 42.386,39.503"/><path fill="#fff" d="M76.433,39.503h-5.524l-8.613,20.996h5.215l1.075-2.998h6.576l0.56,2.998H80.5L76.433,39.503z M70.042,53.49l2.858-7.934l1.496,7.934C74.396,53.49,70.042,53.49,70.042,53.49z"/><path fill="#fff" d="M55.15,45.622c0-1.157,0.911-2.018,3.522-2.018c1.697,0,3.641,1.286,3.641,1.286l0.852-4.407 c0,0-2.483-0.983-4.921-0.983c-5.521,0-8.368,2.756-8.368,6.246c0,6.31,7.276,5.446,7.276,8.687c0,0.555-0.422,1.84-3.452,1.84 c-3.039,0-5.045-1.162-5.045-1.162l-0.905,4.23c0,0,1.944,1.157,5.7,1.157c3.765,0,8.988-2.94,8.988-7.161 C62.437,48.256,55.15,47.89,55.15,45.622z"/><path fill="#fef6aa" d="M29.116,50.521l-1.737-8.614c-0.282-1.4-1.513-2.407-2.941-2.407H16.5 C16.5,39.5,26.706,42.685,29.116,50.521z"/><path fill="#fff" d="M34.7,39.502L34.7,39.502l-4.802,14.951l-0.782-3.932c-1.147-3.729-4.06-6.403-6.798-8.184 l-0.179-0.027l4.406,18.189v-0.004h5.78l7.993-20.993C40.318,39.502,34.7,39.502,34.7,39.502z"/><g><path fill="#1f212b" d="M85,78H15c-2.757,0-5-2.243-5-5V27c0-2.757,2.243-5,5-5h70c2.757,0,5,2.243,5,5v46 C90,75.757,87.757,78,85,78z M15,24c-1.654,0-3,1.346-3,3v46c0,1.654,1.346,3,3,3h70c1.654,0,3-1.346,3-3V27c0-1.654-1.346-3-3-3 H15z"/><path fill="#1f212b" d="M80.5,60.999h-4.778c-0.241,0-0.447-0.171-0.491-0.408L74.747,58h-5.81l-0.956,2.667 c-0.071,0.199-0.26,0.331-0.471,0.331h-5.215c-0.167,0-0.322-0.083-0.415-0.222c-0.093-0.138-0.11-0.314-0.048-0.468l8.613-20.996 c0.077-0.188,0.26-0.31,0.463-0.31h5.523c0.239,0,0.445,0.17,0.491,0.405l4.067,20.996c0.028,0.146-0.011,0.298-0.105,0.414 C80.791,60.932,80.649,60.999,80.5,60.999z M76.137,59.999h3.757l-3.873-19.996h-4.776l-8.203,19.996h4.118l0.956-2.667 C68.187,57.133,68.375,57,68.586,57h6.576c0.241,0,0.447,0.171,0.491,0.408L76.137,59.999z M44.527,60.999h-5.25 c-0.146,0-0.283-0.063-0.379-0.173c-0.095-0.11-0.137-0.256-0.115-0.4l3.108-20.996c0.036-0.245,0.246-0.427,0.494-0.427h5.316 c0.146,0,0.284,0.063,0.379,0.174s0.138,0.257,0.115,0.401L45.02,60.574C44.984,60.818,44.774,60.999,44.527,60.999z M39.856,59.999h4.241l3.023-19.996h-4.304L39.856,59.999z M53.45,60.998c-3.85,0-5.872-1.177-5.956-1.228 c-0.185-0.11-0.278-0.325-0.233-0.534l0.905-4.23c0.034-0.156,0.141-0.287,0.286-0.352c0.146-0.064,0.314-0.056,0.453,0.023 c0.019,0.011,1.94,1.095,4.795,1.095c2.177,0,2.952-0.692,2.952-1.34c0-0.994-0.938-1.517-2.47-2.287 c-2.028-1.02-4.807-2.417-4.807-6.4c0-4.098,3.481-6.746,8.868-6.746c2.504,0,5,0.977,5.104,1.018 c0.224,0.088,0.353,0.324,0.308,0.56l-0.852,4.407c-0.032,0.164-0.144,0.301-0.297,0.366c-0.154,0.064-0.331,0.048-0.47-0.044 c-0.019-0.012-1.843-1.203-3.366-1.203c-2.005,0-3.021,0.511-3.021,1.518c0,0.604,1.117,1.18,2.3,1.791 c2.104,1.086,4.987,2.574,4.988,5.924C62.938,58.013,57.319,60.998,53.45,60.998z M48.32,59.065 c0.673,0.301,2.411,0.933,5.13,0.933c3.379,0,8.488-2.657,8.488-6.662c-0.001-2.741-2.363-3.959-4.447-5.035 c-1.524-0.787-2.841-1.466-2.841-2.679c0-1.149,0.697-2.518,4.021-2.518c1.226,0,2.532,0.591,3.285,0.997l0.636-3.292 C61.818,40.545,60.004,40,58.244,40c-4.854,0-7.868,2.202-7.868,5.746c0,3.368,2.261,4.504,4.256,5.507 c1.553,0.781,3.021,1.519,3.021,3.18c0,0.391-0.19,2.34-3.952,2.34c-2.182,0-3.848-0.57-4.689-0.935L48.32,59.065z M26.544,60.997 c-0.228,0-0.43-0.154-0.485-0.38l-4.405-18.189l0.973-0.235l4.312,17.802h5.043l7.612-19.993h-4.528l-4.69,14.604 c-0.069,0.217-0.281,0.35-0.504,0.346c-0.228-0.013-0.418-0.178-0.462-0.401l-0.782-3.932l0.98-0.195l0.406,2.04l4.212-13.113 c0.066-0.207,0.258-0.347,0.476-0.347l5.618-0.001c0.164,0,0.318,0.081,0.412,0.216c0.093,0.135,0.113,0.308,0.055,0.461 l-7.993,20.993c-0.073,0.194-0.26,0.322-0.467,0.322h-5.733C26.576,60.996,26.56,60.997,26.544,60.997z M74.396,53.99h-4.354 c-0.163,0-0.315-0.079-0.409-0.212s-0.116-0.304-0.062-0.457l2.858-7.934c0.077-0.211,0.271-0.342,0.511-0.329 c0.225,0.018,0.409,0.184,0.451,0.406l1.496,7.934c0.027,0.146-0.012,0.297-0.106,0.412C74.687,53.923,74.545,53.99,74.396,53.99z M70.754,52.99h3.039l-1.044-5.539L70.754,52.99z"/><path fill="#1f212b" d="M29.116,51.021c-0.215,0-0.412-0.139-0.478-0.353c-2.304-7.487-12.188-10.66-12.288-10.691 c-0.235-0.074-0.382-0.309-0.345-0.553S16.253,39,16.5,39h7.938c1.66,0,3.103,1.181,3.431,2.808l1.737,8.614 c0.053,0.261-0.108,0.518-0.367,0.583C29.198,51.016,29.156,51.021,29.116,51.021z M19.12,40c2.5,1.143,6.323,3.335,8.744,6.843 l-0.976-4.838C26.654,40.843,25.624,40,24.438,40H19.12z"/><path fill="#1f212b" d="M30.5,28h-1c-0.276,0-0.5-0.224-0.5-0.5s0.224-0.5,0.5-0.5h1c0.276,0,0.5,0.224,0.5,0.5 S30.776,28,30.5,28z"/><path fill="#1f212b" d="M37.5,28h-4c-0.276,0-0.5-0.224-0.5-0.5s0.224-0.5,0.5-0.5h4c0.276,0,0.5,0.224,0.5,0.5 S37.776,28,37.5,28z"/><path fill="#1f212b" d="M59.5,73h-40c-2.481,0-4.5-2.019-4.5-4.5v-15c0-0.276,0.224-0.5,0.5-0.5s0.5,0.224,0.5,0.5v15 c0,1.93,1.57,3.5,3.5,3.5h40c0.276,0,0.5,0.224,0.5,0.5S59.776,73,59.5,73z"/><path fill="#1f212b" d="M84.5,53c-0.276,0-0.5-0.224-0.5-0.5v-21c0-1.93-1.57-3.5-3.5-3.5h-40c-0.276,0-0.5-0.224-0.5-0.5 s0.224-0.5,0.5-0.5h40c2.481,0,4.5,2.019,4.5,4.5v21C85,52.776,84.776,53,84.5,53z"/><path fill="#1f212b" d="M73.5,73h-1c-0.276,0-0.5-0.224-0.5-0.5s0.224-0.5,0.5-0.5h1c0.276,0,0.5,0.224,0.5,0.5 S73.776,73,73.5,73z"/><path fill="#1f212b" d="M69.5,73h-5c-0.276,0-0.5-0.224-0.5-0.5s0.224-0.5,0.5-0.5h5c0.276,0,0.5,0.224,0.5,0.5 S69.776,73,69.5,73z"/></g></svg>